<?xml version="1.0" encoding="UTF-8"?>
<svg width="26px" height="26px" viewBox="0 0 26 26" version="1.1" xmlns="http://www.w3.org/2000/svg" xmlns:xlink="http://www.w3.org/1999/xlink">
    <!-- Generator: Sketch 52.2 (67145) - http://www.bohemiancoding.com/sketch -->
    <title>icn-copy</title>
    <desc>Created with Sketch.</desc>
    <g id="Page-1" stroke="none" stroke-width="1" fill="none" fill-rule="evenodd">
        <g id="Theme" transform="translate(-1016.000000, -170.000000)" fill="#FFFFFF" fill-rule="nonzero">
            <g id="Results" transform="translate(216.000000, 153.000000)">
                <g id="1">
                    <g id="Tools" transform="translate(789.000000, 0.000000)">
                        <g id="actions" transform="translate(9.000000, 17.000000)">
                            <g id="copy">
                                <path d="M6,0 C3.796875,0 2,1.796875 2,4 L2,17 C2,19.203125 3.796875,21 6,21 L11,21 L11,19 L6,19 C4.894531,19 4,18.105469 4,17 L4,4 C4,2.894531 4.894531,2 6,2 L10.28125,2 C11.003906,2.183594 11,3.050781 11,3.9375 L11,6 C11,6.25 11.097656,6.480469 11.25,6.65625 C11.808594,5.117188 13.269531,4 15,4 L15.0625,4 C14.886719,3.824219 14.707031,3.644531 14.53125,3.46875 C14.285156,3.222656 14.019531,2.992188 13.78125,2.75 C12.070313,1.003906 11.0625,0 10,0 L6,0 Z M16,5 C13.796875,5 12,6.796875 12,9 L12,22 C12,24.203125 13.796875,26 16,26 L24,26 C26.203125,26 28,24.203125 28,22 L28,13 C28,11.9375 27.027344,10.929688 25.28125,9.21875 C25.039063,8.980469 24.777344,8.714844 24.53125,8.46875 C24.285156,8.222656 24.019531,7.992188 23.78125,7.75 C22.070313,6.003906 21.0625,5 20,5 L16,5 Z M16,7 L20.28125,7 C21.003906,7.183594 21,8.050781 21,8.9375 L21,11 C21,11.550781 21.449219,12 22,12 L24,12 C24.996094,12 26,12.003906 26,13 L26,22 C26,23.105469 25.105469,24 24,24 L16,24 C14.894531,24 14,23.105469 14,22 L14,9 C14,7.894531 14.894531,7 16,7 Z M6,8 L6,10 L11,10 L11,8 L6,8 Z M6,11 L6,13 L11,13 L11,11 L6,11 Z M16,13 L16,15 L24,15 L24,13 L16,13 Z M6,14 L6,16 L11,16 L11,14 L6,14 Z M16,16 L16,18 L22,18 L22,16 L16,16 Z M16,19 L16,21 L24,21 L24,19 L16,19 Z" id="icn-copy"></path>
                            </g>
                        </g>
                    </g>
                </g>
            </g>
        </g>
    </g>
</svg>