<?xml version="1.0" encoding="UTF-8"?>
<svg width="7px" height="26px" viewBox="0 0 7 26" version="1.1" xmlns="http://www.w3.org/2000/svg" xmlns:xlink="http://www.w3.org/1999/xlink">
    <!-- Generator: Sketch 52.2 (67145) - http://www.bohemiancoding.com/sketch -->
    <title>icn-more</title>
    <desc>Created with Sketch.</desc>
    <g id="Page-1" stroke="none" stroke-width="1" fill="none" fill-rule="evenodd">
        <g id="Theme" transform="translate(-1026.000000, -375.000000)" fill="#FFFFFF" fill-rule="nonzero">
            <g id="Results" transform="translate(216.000000, 153.000000)">
                <g id="1">
                    <g id="Tools" transform="translate(789.000000, 0.000000)">
                        <path d="M24.4666667,222 C22.5595488,222 21,223.594993 21,225.545455 C21,227.495916 22.5595488,229.090909 24.4666667,229.090909 C26.3737846,229.090909 27.9333333,227.495916 27.9333333,225.545455 C27.9333333,223.594993 26.3737846,222 24.4666667,222 Z M24.4666667,223.181818 C25.7508679,223.181818 26.7777778,224.232067 26.7777778,225.545455 C26.7777778,226.858842 25.7508679,227.909091 24.4666667,227.909091 C23.1824654,227.909091 22.1555556,226.858842 22.1555556,225.545455 C22.1555556,224.232067 23.1824654,223.181818 24.4666667,223.181818 Z M24.4666667,231.454545 C22.5595488,231.454545 21,233.049539 21,235 C21,236.950461 22.5595488,238.545455 24.4666667,238.545455 C26.3737846,238.545455 27.9333333,236.950461 27.9333333,235 C27.9333333,233.049539 26.3737846,231.454545 24.4666667,231.454545 Z M24.4666667,232.636364 C25.7508679,232.636364 26.7777778,233.686612 26.7777778,235 C26.7777778,236.313388 25.7508679,237.363636 24.4666667,237.363636 C23.1824654,237.363636 22.1555556,236.313388 22.1555556,235 C22.1555556,233.686612 23.1824654,232.636364 24.4666667,232.636364 Z M24.4666667,240.909091 C22.5595488,240.909091 21,242.504084 21,244.454545 C21,246.405007 22.5595488,248 24.4666667,248 C26.3737846,248 27.9333333,246.405007 27.9333333,244.454545 C27.9333333,242.504084 26.3737846,240.909091 24.4666667,240.909091 Z M24.4666667,242.090909 C25.7508679,242.090909 26.7777778,243.141158 26.7777778,244.454545 C26.7777778,245.767933 25.7508679,246.818182 24.4666667,246.818182 C23.1824654,246.818182 22.1555556,245.767933 22.1555556,244.454545 C22.1555556,243.141158 23.1824654,242.090909 24.4666667,242.090909 Z" id="icn-more"></path>
                    </g>
                </g>
            </g>
        </g>
    </g>
</svg>